<?xml version="1.0" standalone="no"?>
<!DOCTYPE svg PUBLIC "-//W3C//DTD SVG 20010904//EN"
 "http://www.w3.org/TR/2001/REC-SVG-20010904/DTD/svg10.dtd">
<svg version="1.0" xmlns="http://www.w3.org/2000/svg"
 width="800.000000pt" height="533.000000pt" viewBox="0 0 800.000000 533.000000"
 preserveAspectRatio="xMidYMid meet">
<metadata>
Created by potrace 1.16, written by Peter Selinger 2001-2019
</metadata>
<g transform="translate(0.000000,533.000000) scale(0.100000,-0.100000)"
fill="#000000" stroke="none">
<path d="M0 4454 c0 -605 3 -873 10 -869 6 4 17 2 25 -5 9 -7 15 -8 20 0 9 14
22 12 29 -5 3 -8 -4 -24 -16 -35 -12 -11 -16 -20 -10 -20 7 0 17 -11 22 -25
11 -28 28 -33 36 -10 4 8 13 15 21 15 11 0 13 -4 7 -13 -5 -7 -2 -5 8 5 9 10
21 18 27 18 6 0 11 4 11 10 0 5 6 7 14 4 8 -3 17 -1 21 5 3 6 15 11 26 11 19
0 20 -5 15 -65 -4 -53 -2 -65 10 -65 11 0 13 -6 8 -22 -16 -53 -58 -66 -74
-23 -11 29 -14 30 -34 9 -9 -8 -16 -11 -16 -5 0 6 -7 8 -15 5 -8 -4 -15 -1
-15 6 0 9 -4 10 -13 2 -15 -13 -31 3 -57 51 -13 27 -15 27 -28 10 -7 -10 -18
-17 -23 -15 -5 1 -9 -661 -9 -1713 l0 -1715 265 0 c229 0 265 2 265 15 0 19
21 19 46 0 16 -12 244 -14 1754 -15 1573 0 1732 1 1712 16 -12 8 -22 21 -22
27 1 13 62 47 87 47 13 0 13 3 3 15 -19 23 -5 29 23 10 24 -15 25 -15 31 11 7
27 18 26 22 -2 1 -8 -8 -20 -22 -26 -13 -6 -24 -20 -24 -31 0 -14 -5 -18 -18
-15 -14 4 -18 -1 -20 -23 -2 -27 0 -29 33 -29 28 0 33 3 28 18 -6 16 -5 16 14
0 18 -17 124 -18 1921 -18 l1902 0 0 2665 0 2665 -4000 0 -4000 0 0 -876z
m5088 -160 c2 -14 -9 -32 -32 -52 -19 -17 -46 -52 -59 -79 -14 -26 -34 -59
-45 -73 l-20 -25 -15 36 c-29 69 -31 115 -7 163 19 41 25 45 63 49 85 8 112 4
115 -19z m-4263 -285 c8 -15 15 -51 15 -78 0 -40 -4 -52 -20 -61 -11 -6 -18
-15 -15 -21 4 -5 0 -9 -8 -9 -8 0 -17 6 -20 14 -3 8 -21 16 -39 18 -33 3 -33
4 -35 58 -3 57 4 74 45 102 30 21 59 12 77 -23z m458 -404 c-4 -32 -1 -51 11
-69 20 -31 21 -52 2 -63 -7 -4 -18 -18 -25 -30 -6 -13 -17 -20 -25 -17 -15 6
-46 -20 -63 -51 -14 -24 -61 -10 -61 18 0 12 -2 29 -4 37 -3 8 -8 27 -13 43
-4 17 -14 27 -26 27 -23 0 -25 16 -3 24 10 4 13 13 9 25 -4 14 0 23 15 31 11
6 20 17 20 25 0 20 19 29 34 16 9 -7 17 -5 29 9 9 11 21 20 26 20 12 0 25 -83
18 -111 -3 -11 1 -35 9 -52 13 -30 14 -25 9 65 -5 87 -4 97 12 100 29 7 33 0
26 -47z m1424 -40 c11 -8 24 -27 28 -42 8 -36 60 -83 90 -83 44 0 74 -21 81
-55 3 -18 1 -42 -5 -52 -10 -19 -16 -20 -93 -14 -4 1 -8 18 -10 39 l-4 37 -13
-32 c-7 -18 -16 -33 -19 -33 -12 0 -52 44 -52 57 0 8 -16 33 -36 57 -28 34
-41 42 -60 38 -33 -6 -32 27 2 67 28 34 58 39 91 16z m-1938 -76 c17 -12 31
-29 31 -36 0 -7 -20 -22 -44 -33 -52 -23 -58 -24 -74 -8 -7 7 -25 13 -40 13
-24 0 -27 4 -24 30 6 66 84 84 151 34z m755 -64 c-11 -53 -31 -75 -68 -75 -18
0 -39 7 -46 15 -9 11 -16 13 -24 5 -16 -16 -23 -12 -30 15 -7 28 24 72 43 61
5 -4 12 -2 16 4 3 6 31 9 61 8 l55 -2 -7 -31z m1402 -231 c16 -4 23 -16 28
-44 3 -21 9 -45 12 -54 4 -10 1 -16 -8 -16 -8 0 -23 -9 -33 -20 -21 -23 -35
-26 -35 -6 0 7 -7 19 -15 26 -8 7 -15 8 -15 3 0 -5 -7 -10 -15 -10 -8 0 -15 9
-15 19 0 10 -6 27 -12 38 -27 43 40 82 108 64z m1094 -42 c0 -15 -10 -50 -22
-79 l-21 -51 26 -32 c15 -17 27 -42 27 -55 0 -12 7 -28 15 -35 8 -7 15 -17 15
-23 0 -6 -13 2 -30 18 -16 15 -27 32 -24 36 2 4 -4 13 -15 19 -26 13 -32 2
-35 -64 -2 -30 -10 -63 -21 -80 -11 -16 -19 -46 -20 -67 -2 -65 -15 -56 -15
10 0 34 4 60 9 57 5 -3 11 5 13 19 5 25 -7 35 -15 13 -8 -23 -17 -3 -22 47 -2
30 1 55 8 64 9 12 9 13 0 7 -10 -5 -13 3 -13 28 0 20 3 35 8 34 4 -2 22 3 40
11 29 12 35 22 54 87 21 72 38 89 38 36z m839 8 c22 0 51 -30 51 -53 0 -11 3
-17 7 -14 3 4 12 -1 19 -11 10 -13 13 -13 14 -3 0 28 40 -21 40 -51 0 -46 -48
-38 -104 18 -7 8 -19 9 -35 3 -31 -12 -33 -9 -39 50 -5 60 3 90 20 73 7 -7 19
-12 27 -12z m-1907 -145 c7 0 13 -4 14 -10 2 -28 39 -96 64 -119 16 -14 32
-37 36 -51 4 -16 12 -24 19 -21 8 3 16 -2 19 -10 8 -21 8 -39 -1 -31 -3 4 -15
-1 -25 -10 -18 -16 -20 -15 -48 15 -16 18 -41 36 -55 42 -23 9 -25 13 -19 49
6 37 5 39 -28 51 -30 11 -34 16 -30 44 5 45 24 80 33 64 5 -7 14 -13 21 -13z
m666 -28 c11 -34 10 -47 -10 -103 -16 -46 -19 -67 -11 -75 7 -7 8 -22 1 -46
-6 -22 -6 -45 1 -63 10 -31 3 -42 -35 -54 -30 -9 -34 8 -27 118 5 86 4 98 -17
131 -34 55 -33 94 4 116 48 30 79 22 94 -24z m-2072 -9 c3 -5 11 -5 19 2 17
14 31 -5 40 -53 6 -31 5 -36 -8 -31 -12 4 -16 0 -14 -18 0 -12 5 -25 9 -28 4
-4 11 -21 14 -39 7 -32 6 -33 -15 -22 -11 7 -21 16 -21 21 0 5 -12 -2 -27 -16
l-27 -25 -11 22 c-8 15 -14 18 -19 10 -4 -7 -16 -11 -26 -9 -10 2 -28 -8 -39
-21 -18 -20 -31 -24 -81 -25 -33 0 -60 -3 -60 -7 0 -7 -29 -4 -50 5 -8 3 -26
5 -40 4 -45 -4 -91 13 -127 48 -19 18 -31 38 -28 44 4 6 3 10 -2 9 -21 -4 -33
2 -33 17 0 10 5 12 13 7 23 -14 41 -12 75 9 30 18 39 20 81 10 39 -9 48 -8 58
5 8 10 20 13 36 9 13 -3 27 -3 31 1 6 6 69 13 129 14 10 0 15 5 11 12 -3 7 3
1 13 -11 18 -22 21 -23 36 -7 9 9 17 31 17 50 0 28 3 32 20 28 11 -3 23 -10
26 -15z m1100 -28 c10 -22 24 -40 31 -40 20 0 63 -49 63 -71 0 -12 -7 -19 -19
-19 -14 0 -23 -12 -33 -42 -18 -53 -42 -57 -44 -8 -1 19 -8 51 -16 70 -8 19
-18 43 -21 53 -4 11 -17 17 -37 17 -26 0 -30 3 -30 28 0 23 6 30 33 39 51 16
55 15 73 -27z m496 -370 c-7 -31 -12 -66 -12 -78 0 -15 -6 -22 -20 -22 -19 0
-22 7 -33 65 -3 18 -5 17 -17 -7 -10 -22 -11 -34 -2 -54 7 -14 17 -22 22 -19
5 3 7 0 4 -8 -3 -8 -13 -14 -22 -13 -8 0 -21 -8 -26 -19 -8 -14 -19 -19 -38
-17 -16 2 -28 7 -28 11 0 14 24 27 47 25 21 -1 22 2 16 45 -3 25 -7 48 -10 50
-2 3 -19 -3 -38 -12 -37 -17 -49 -11 -50 26 0 12 -16 25 -46 38 l-46 20 -44
-23 -44 -23 -5 -83 c-3 -45 -9 -82 -15 -83 -5 0 -16 -10 -23 -22 -11 -20 -12
-17 -10 23 2 36 0 44 -12 42 -8 -2 -12 0 -8 4 4 4 3 13 -3 20 -8 10 -5 25 11
58 18 37 19 48 9 65 -10 15 -10 25 -2 44 9 18 8 28 0 37 -9 10 -7 11 11 5 18
-5 25 -2 29 13 8 32 52 21 88 -21 30 -35 46 -40 73 -23 7 4 25 5 40 1 39 -10
37 -11 41 28 0 8 13 19 27 26 22 9 28 9 38 -3 17 -23 49 -13 65 20 l14 29 15
-54 c13 -44 13 -64 4 -111z m794 -13 c5 -1 7 -6 5 -12 -3 -5 -5 -23 -5 -40 -1
-28 1 -30 31 -28 l31 3 0 -55 c0 -30 -4 -53 -7 -50 -4 2 -8 -12 -8 -31 -1 -19
1 -34 4 -34 9 0 31 31 55 75 13 24 23 35 26 26 4 -11 6 -11 13 0 7 11 9 9 9
-5 0 -11 7 -27 16 -37 14 -16 14 -22 -2 -71 -9 -29 -19 -59 -20 -65 -5 -18
-50 -16 -79 3 -14 9 -32 14 -40 10 -8 -3 -15 -4 -15 -3 -30 196 -44 345 -32
329 5 -8 13 -14 18 -15z m995 -27 c29 0 60 -72 48 -114 -15 -51 -11 -94 11
-116 22 -22 28 -86 9 -92 -6 -2 -9 -19 -7 -38 4 -33 5 -34 14 -12 9 20 12 22
22 9 13 -16 3 -59 -17 -72 -15 -9 -14 -22 4 -29 8 -3 14 0 12 7 -1 7 5 11 13
9 8 -2 12 0 8 4 -4 4 -3 13 3 21 6 7 8 13 4 13 -4 0 -1 8 6 17 8 9 9 14 3 10
-6 -3 -18 7 -28 24 -10 17 -13 29 -6 29 6 0 8 5 4 12 -10 16 -15 98 -7 110 5
9 20 -11 39 -52 4 -8 12 -18 18 -22 6 -4 12 -22 13 -40 1 -18 5 -47 8 -65 6
-26 3 -33 -15 -43 -19 -10 -21 -17 -15 -57 6 -42 5 -44 -14 -38 -18 6 -21 2
-21 -27 0 -21 -9 -44 -25 -62 -30 -34 -30 -35 -9 -64 9 -13 13 -26 10 -29 -10
-10 -95 39 -101 58 -3 10 -19 21 -35 24 -19 4 -30 13 -30 23 -1 15 -2 15 -13
1 -51 -65 -59 -72 -65 -62 -11 18 -64 4 -58 -16 8 -25 15 -91 18 -158 2 -35 6
-63 11 -63 4 0 7 -4 7 -10 0 -5 -11 -9 -23 -8 -19 2 -24 8 -23 28 1 14 -4 39
-11 57 -15 36 -17 56 -5 50 4 -3 6 15 5 41 -1 25 -8 49 -14 53 -15 9 -16 76
-2 90 6 6 8 29 6 53 -5 45 7 64 30 49 15 -9 48 -5 65 9 9 8 16 6 26 -8 8 -10
12 -23 9 -29 -2 -7 2 -17 10 -23 11 -9 13 -6 9 17 -3 21 2 35 16 47 15 13 19
25 15 46 -3 17 -1 28 6 28 6 0 11 5 11 11 0 5 -4 7 -10 4 -6 -4 -10 9 -10 32
0 22 -5 44 -11 50 -8 8 -8 13 0 17 17 11 13 36 -4 30 -11 -5 -15 2 -14 32 0
77 -3 114 -11 114 -4 0 -11 -7 -14 -16 -3 -8 -10 -12 -16 -9 -22 14 -8 48 37
88 25 23 54 50 62 60 9 9 17 13 19 7 2 -5 13 -10 23 -10z m-205 -118 c-3 -5 0
-26 6 -46 10 -31 9 -39 -2 -46 -12 -7 -11 -10 4 -16 11 -4 21 -2 27 7 7 12 11
11 24 -2 12 -12 14 -24 8 -48 -5 -18 -12 -31 -16 -29 -16 6 -29 -31 -18 -49 6
-11 11 -13 12 -5 1 6 2 17 3 22 1 11 11 14 29 7 9 -3 9 -11 1 -35 -7 -19 -8
-32 -2 -34 5 -2 4 -14 -4 -29 -7 -14 -19 -24 -26 -21 -7 2 -12 -6 -12 -22 0
-14 -5 -26 -11 -26 -18 0 -79 32 -79 41 0 12 17 11 25 -1 3 -5 11 -10 17 -10
27 0 -30 42 -71 53 l-46 12 40 5 c22 3 39 10 38 16 -1 6 -3 49 -3 95 -2 88 9
135 37 157 19 14 26 16 19 4z m-2597 -20 c17 2 31 1 31 -2 0 -4 10 -7 23 -8
31 0 67 -13 67 -24 0 -5 -4 -7 -9 -4 -4 3 -7 -12 -6 -34 2 -33 -1 -40 -16 -40
-11 0 -19 -6 -19 -14 0 -8 -6 -16 -12 -18 -7 -3 -11 -18 -10 -37 1 -19 -2 -30
-7 -26 -6 3 -8 12 -5 19 3 7 -6 21 -20 30 -15 9 -26 23 -26 32 0 11 -6 13 -19
9 -15 -5 -21 0 -26 25 -8 37 4 118 15 100 5 -8 20 -11 39 -8z m751 -10 c0 -4
14 -13 30 -19 21 -8 30 -18 30 -33 0 -12 5 -30 10 -41 9 -16 6 -22 -22 -39
-25 -15 -35 -17 -47 -7 -17 14 -16 12 31 -62 36 -57 36 -73 1 -69 -17 2 -34
-4 -43 -14 -9 -9 -25 -16 -35 -15 -14 1 -20 -5 -21 -18 -2 -35 -26 -75 -47
-75 -18 0 -18 1 -3 25 9 14 12 25 6 25 -5 0 -10 8 -10 18 -1 15 -2 16 -13 1
-10 -14 -14 -14 -25 -3 -19 20 -14 34 12 34 14 0 25 7 28 18 6 21 -1 44 -11
37 -5 -2 -16 2 -27 9 -18 14 -18 15 1 51 23 42 39 52 59 36 11 -9 18 -8 30 4
9 9 16 22 16 28 0 7 8 3 16 -8 14 -19 15 -15 11 47 -3 36 -3 69 0 72 9 9 23 7
23 -2z m-412 -39 c-8 -11 -7 -12 7 -7 16 6 17 3 12 -24 -3 -17 -2 -32 3 -34 6
-2 11 -21 13 -43 1 -22 5 -42 8 -45 3 -3 9 -17 13 -32 5 -21 3 -28 -9 -28 -18
0 -20 -40 -2 -60 10 -12 9 -12 -4 -2 -25 19 -35 -3 -34 -71 2 -72 -17 -95 -35
-42 -6 19 -16 35 -21 35 -5 0 -9 9 -9 20 0 21 19 28 21 8 0 -7 4 0 9 15 5 16
4 41 -2 60 -9 31 -11 112 -3 152 2 11 4 41 4 67 1 40 4 47 20 45 15 -1 17 -4
9 -14z m1676 -92 c-8 -77 11 -194 37 -217 10 -9 19 -23 19 -31 0 -20 16 -16
45 11 15 14 24 30 20 36 -9 15 13 40 36 40 17 0 24 11 20 33 0 4 8 24 20 45
l21 37 -5 -37 c-5 -33 -3 -38 15 -38 11 0 22 8 25 20 5 19 65 56 116 71 22 6
27 4 27 -10 0 -22 -25 -46 -63 -60 -28 -11 -35 -29 -16 -48 7 -7 1 -14 -22
-22 -39 -14 -42 -14 -34 -1 3 6 1 10 -4 10 -6 0 -11 -7 -11 -15 0 -8 -5 -15
-10 -15 -17 0 -60 -51 -76 -89 l-14 -33 -20 23 c-16 21 -19 21 -20 6 0 -10 -7
-20 -15 -23 -24 -10 -36 -39 -71 -179 -18 -71 -32 -116 -32 -100 0 17 -3 38
-7 48 -5 11 -2 24 9 36 21 23 20 26 -4 28 -14 1 -20 -4 -20 -18 0 -12 -10 -23
-25 -29 -15 -6 -25 -17 -25 -30 0 -18 3 -19 20 -8 28 18 34 4 13 -28 -10 -16
-17 -29 -16 -31 3 -4 -6 -31 -20 -63 -11 -25 -11 -25 -15 -2 -4 23 -26 30 -38
10 -5 -8 -11 -6 -19 5 -11 15 -13 14 -23 -8 -7 -15 -8 -25 -2 -25 15 0 12 -30
-3 -36 -8 -3 -25 -19 -38 -37 -19 -26 -23 -44 -24 -100 0 -66 1 -68 23 -62 24
6 31 -9 7 -19 -18 -6 -9 -36 11 -36 7 0 21 -12 30 -26 11 -16 20 -21 24 -14 6
9 7 -44 1 -72 -2 -12 -31 -9 -31 3 0 5 -4 7 -10 4 -36 -22 24 -34 74 -15 21 7
26 6 26 -5 0 -23 36 -18 48 8 8 17 11 18 11 5 1 -29 31 -22 31 7 0 14 5 25 11
25 6 0 9 -7 5 -15 -3 -8 -2 -15 2 -16 4 0 20 -3 35 -5 18 -3 26 -1 23 5 -4 6
-4 21 0 35 4 17 11 23 22 19 14 -5 15 -3 5 8 -15 15 -17 29 -4 29 15 0 19 -39
5 -51 -22 -18 -18 -42 6 -34 29 9 25 -12 -9 -44 l-30 -28 34 -1 c23 -1 38 4
44 16 10 16 10 16 11 0 0 -10 5 -18 10 -18 6 0 11 -8 11 -17 1 -17 2 -17 6 -1
3 11 13 17 26 15 16 -1 23 4 25 20 2 12 10 27 19 35 15 12 16 8 11 -33 -5 -43
-4 -47 17 -45 12 0 22 7 21 15 -1 7 7 15 17 17 42 6 48 13 37 35 -13 24 -14
23 25 37 26 9 20 11 -47 11 -52 1 -95 8 -130 21 -66 25 -71 25 -56 1 7 -11 17
-17 23 -14 5 3 4 0 -2 -7 -10 -11 -9 -17 4 -32 16 -17 15 -18 -8 -15 -16 3
-24 11 -24 25 0 12 -4 24 -8 28 -4 4 -7 24 -7 45 0 27 -5 39 -17 42 -17 4 -17
5 -1 6 10 0 22 -8 28 -20 14 -25 90 -59 146 -66 49 -5 150 19 173 41 10 11 11
16 3 16 -7 0 4 22 23 49 21 30 35 60 35 78 0 17 7 36 15 43 8 7 15 19 15 26 0
8 6 14 14 14 8 0 17 6 19 13 3 6 6 -1 7 -18 l2 -30 13 35 c19 50 19 5 0 -50
-8 -23 -15 -51 -15 -62 0 -21 -79 -148 -92 -148 -4 0 -8 -6 -8 -12 0 -7 -7
-26 -16 -43 -15 -29 -14 -77 2 -119 4 -11 1 -16 -10 -16 -17 0 -21 -26 -7 -49
7 -11 10 -11 17 0 12 19 35 81 36 97 1 9 9 11 27 7 25 -6 25 -5 9 11 -9 9 -27
18 -39 19 -36 3 -34 23 3 27 39 4 50 32 21 53 -17 13 -17 15 0 32 9 9 17 13
17 7 0 -9 41 -34 55 -34 14 0 2 20 -15 25 -14 4 -20 15 -20 35 0 16 4 31 9 35
5 3 12 19 16 35 6 26 8 28 21 15 13 -13 18 -13 40 1 23 16 24 15 24 -5 0 -26
34 -29 48 -5 8 15 10 15 15 0 3 -8 1 -18 -5 -22 -7 -4 -6 -9 3 -15 14 -9 16
-71 4 -127 -6 -25 -10 -30 -20 -22 -19 16 -48 1 -41 -21 21 -67 21 -66 -13
-31 -18 17 -37 32 -42 32 -13 0 -11 -34 3 -48 9 -9 8 -12 -8 -12 -16 0 -15 -3
9 -18 15 -9 27 -23 27 -30 0 -8 -8 -6 -22 8 -23 21 -53 26 -63 10 -3 -5 -2
-10 3 -10 4 0 15 -16 22 -35 8 -20 21 -41 29 -48 12 -9 13 -9 7 1 -4 6 -2 12
3 12 6 0 11 10 12 23 1 21 1 21 8 -3 5 -20 9 -22 16 -10 7 11 11 7 17 -15 6
-23 3 -34 -12 -50 -18 -17 -20 -18 -20 -2 0 9 -2 17 -4 17 -2 0 -11 3 -19 6
-19 7 -32 -27 -15 -38 9 -5 5 -8 -11 -8 -16 0 -21 4 -18 14 3 7 -8 27 -25 42
-29 28 -30 28 -23 5 l7 -23 -31 18 c-17 10 -31 22 -31 27 0 4 -9 3 -21 -3 -11
-7 -27 -9 -34 -6 -19 7 -31 -14 -29 -50 3 -41 -37 -92 -56 -70 -6 8 -10 23 -7
33 4 14 5 13 6 -5 1 -13 5 -20 11 -17 14 8 2 97 -14 107 -8 5 -7 8 2 8 6 0 12
7 12 16 0 10 -8 15 -22 14 -39 -4 -48 -1 -48 16 0 25 -33 12 -40 -16 -10 -41
-22 -5 -15 43 5 32 4 39 -5 31 -6 -7 -12 -33 -12 -58 -1 -47 -18 -45 -18 2 0
13 -5 22 -13 20 -15 -3 -57 37 -57 55 0 6 -14 13 -30 14 l-31 2 21 -29 c12
-17 26 -30 31 -30 5 0 9 -9 9 -20 0 -30 -13 -24 -40 20 -14 22 -30 41 -37 41
-27 3 -32 4 -39 11 -4 4 5 12 20 17 14 6 26 15 26 20 0 14 -23 19 -45 10 -11
-4 -14 -8 -7 -8 7 -1 10 -6 7 -11 -5 -8 -12 -7 -22 2 -22 18 -132 18 -165 -1
-16 -8 -28 -19 -28 -23 0 -4 -7 -8 -15 -8 -8 0 -15 -5 -15 -10 0 -6 11 -8 26
-4 20 5 26 2 31 -15 5 -21 19 -26 47 -15 21 8 10 24 -17 25 -21 0 -21 1 3 12
14 6 29 16 33 22 6 7 10 6 14 -2 2 -7 11 -13 19 -13 9 0 12 -4 9 -10 -3 -5 1
-10 9 -10 20 0 20 -7 2 -25 -10 -11 -16 -11 -26 -2 -10 9 -14 9 -17 0 -3 -7
-9 -13 -15 -13 -16 0 -40 -29 -33 -40 9 -14 25 -12 25 3 0 7 10 12 23 12 25
-2 79 -23 59 -24 -10 -1 -10 -5 2 -17 9 -8 16 -20 16 -26 0 -6 10 -8 26 -4 15
4 23 3 20 -3 -3 -5 0 -12 6 -14 7 -3 4 -6 -7 -7 -18 -1 -17 -2 4 -11 31 -12
43 4 36 49 -5 27 -3 32 13 32 41 0 81 -13 87 -28 5 -12 -2 -14 -41 -8 -41 5
-45 4 -39 -12 17 -42 18 -52 1 -46 -9 3 -16 1 -16 -5 0 -6 6 -11 13 -11 9 0 8
-3 -2 -9 -10 -7 -11 -13 -1 -31 10 -18 8 -25 -7 -43 -16 -19 -16 -20 0 -8 21
16 21 13 3 -30 -8 -19 -13 -38 -13 -44 1 -5 -7 -11 -18 -13 -16 -3 -17 -1 -5
7 12 9 11 11 -7 11 -19 0 -23 -5 -23 -32 0 -17 -7 -39 -16 -49 -14 -16 -14
-21 6 -58 14 -29 27 -41 43 -42 15 0 17 -2 7 -6 -8 -3 -18 -10 -21 -15 -3 -5
-16 3 -28 18 -12 15 -24 24 -28 20 -4 -3 2 -12 12 -20 10 -7 16 -20 12 -29 -3
-8 3 -23 14 -33 26 -23 24 -34 -7 -34 -16 0 -23 -4 -18 -11 3 -6 19 -9 35 -5
22 4 27 2 22 -9 -3 -8 -15 -15 -27 -15 -11 0 -33 -6 -48 -14 -22 -12 -26 -12
-21 -1 2 8 0 22 -5 32 -9 16 -12 15 -23 -11 -11 -24 -14 -26 -20 -9 -3 10 -4
23 -1 28 4 6 7 15 8 20 0 6 2 16 2 23 1 6 9 12 17 12 8 0 15 5 15 11 0 6 -7 8
-15 5 -10 -3 -19 1 -23 12 -4 9 -16 17 -27 17 -15 0 -20 7 -20 27 -1 15 -4 30
-8 34 -4 4 -7 0 -7 -9 0 -24 -17 -21 -31 4 -8 16 -13 18 -19 9 -6 -9 -11 -7
-19 8 -15 29 -14 34 9 27 17 -5 19 -2 15 31 -7 47 -11 54 -39 54 -13 0 -29 7
-36 15 -15 18 -34 9 -26 -12 3 -8 1 -11 -4 -8 -6 3 -10 1 -10 -5 0 -6 11 -15
25 -22 13 -6 22 -15 18 -21 -4 -6 4 -8 20 -5 15 3 24 1 21 -3 -3 -5 -12 -9
-20 -9 -18 0 -18 -5 2 -36 9 -13 14 -27 10 -31 -8 -9 -46 27 -46 44 0 18 -19
17 -26 -2 -4 -8 -12 -15 -20 -15 -10 0 -14 14 -14 48 0 26 -4 53 -9 61 -7 10
-4 19 7 28 15 11 15 12 -6 13 -13 0 -32 -5 -43 -10 -13 -7 -19 -7 -19 0 0 5 5
10 10 10 6 0 24 10 40 22 27 19 31 20 47 6 43 -36 113 -47 113 -17 0 6 -7 9
-15 5 -9 -3 -15 0 -15 8 0 18 -22 26 -51 19 -14 -4 -20 -2 -16 4 4 6 23 14 42
17 34 7 51 36 20 36 -8 0 -15 -7 -15 -16 0 -9 -6 -14 -12 -11 -7 2 -12 10 -11
16 2 6 -2 11 -7 11 -6 0 -10 -4 -10 -8 0 -5 -10 -8 -22 -7 -13 1 -29 0 -36 -3
-11 -4 -11 -6 0 -14 9 -7 8 -8 -7 -6 -12 2 -21 12 -23 26 -4 26 -8 27 -28 8
-9 -9 -10 -17 -4 -21 17 -10 -15 -34 -38 -29 -11 3 -23 0 -27 -7 -5 -8 -4 -10
3 -5 7 4 12 3 12 -3 0 -5 -5 -11 -12 -13 -8 -3 -7 -11 5 -28 9 -14 17 -19 17
-12 0 7 11 25 25 40 27 29 33 25 13 -8 -10 -15 -10 -24 -1 -38 14 -23 2 -45
-19 -37 -19 7 -42 -20 -32 -37 4 -7 -9 3 -28 23 -20 19 -43 49 -51 65 l-16 29
-13 -32 c-7 -18 -18 -33 -25 -33 -7 0 -15 0 -18 0 -3 0 -5 3 -4 8 0 4 8 5 17
4 14 -3 14 -2 1 14 -24 31 -53 53 -69 53 -10 0 -6 -8 12 -23 l27 -24 -34 -16
c-38 -18 -49 -20 -40 -6 3 6 -1 7 -10 4 -14 -6 -14 -8 2 -20 17 -13 17 -13 -4
-14 -12 0 -24 4 -27 8 -6 11 -64 3 -72 -9 -3 -5 -16 -9 -30 -9 -33 0 -30 -22
6 -43 17 -10 30 -17 31 -15 0 2 2 11 4 21 5 27 15 34 25 17 6 -9 6 -16 0 -18
-6 -2 -10 -8 -10 -13 0 -6 3 -8 8 -5 4 2 15 -2 25 -9 16 -11 16 -14 1 -25 -8
-8 -22 -27 -30 -42 -10 -18 -22 -28 -32 -26 -10 2 -22 -6 -29 -22 -9 -19 -12
-21 -12 -7 -1 10 -6 15 -11 12 -6 -4 -8 -16 -5 -26 7 -20 6 -20 -34 0 -22 12
-48 21 -57 21 -14 0 -15 2 -3 17 12 15 12 16 -4 10 -10 -4 -26 -7 -35 -7 -9 0
-2 -8 16 -17 20 -10 29 -19 22 -23 -6 -4 -10 -11 -9 -16 3 -20 -2 -26 -13 -17
-14 11 -68 26 -68 19 0 -2 -3 -11 -6 -20 -4 -11 -1 -16 11 -16 9 0 13 -5 10
-10 -5 -8 -11 -7 -20 0 -8 7 -19 9 -25 5 -5 -3 -10 -1 -10 4 0 6 5 11 11 11 5
0 7 5 4 10 -9 15 -25 12 -25 -4 0 -19 -28 -24 -70 -13 l-35 9 23 15 c31 22 28
29 -14 28 -40 -2 -56 -19 -50 -54 4 -25 -17 -75 -27 -64 -14 13 -57 -20 -57
-43 0 -27 -19 -43 -22 -17 0 10 -2 23 -2 30 -1 7 -7 18 -14 25 -17 17 -15 48
3 48 8 0 16 5 16 10 3 19 5 25 17 46 6 12 8 24 5 28 -11 10 -51 7 -55 -6 -3
-7 -14 -9 -30 -5 -20 5 -25 12 -21 26 4 17 -1 20 -38 23 l-44 3 32 18 c18 9
46 17 63 17 22 0 29 4 24 13 -4 7 -3 9 2 4 5 -5 9 -14 9 -20 0 -6 13 -14 28
-18 16 -4 35 -13 43 -20 11 -9 18 -8 34 6 11 10 20 26 20 37 0 10 5 18 10 18
6 0 10 8 10 18 0 9 9 34 20 55 11 20 20 45 20 54 0 10 9 29 20 43 11 14 20 30
20 36 0 6 7 24 15 41 17 34 36 124 29 135 -3 5 -14 8 -25 8 -11 0 -19 7 -19
16 0 10 -6 14 -15 10 -8 -3 -25 5 -39 19 -23 23 -46 19 -31 -5 3 -5 -1 -10 -9
-10 -17 0 -17 20 -1 32 6 4 0 8 -12 8 -12 0 -25 5 -28 10 -9 15 31 12 71 -5
20 -8 41 -12 47 -8 5 3 7 1 3 -5 -3 -6 -1 -14 5 -18 12 -7 31 15 23 27 -2 4 0
10 5 14 6 3 8 12 4 20 -3 10 2 15 17 15 24 0 60 17 60 28 0 5 -17 6 -37 4 -37
-4 -37 -4 -21 15 23 25 134 33 124 8 -3 -8 -1 -15 5 -15 6 0 8 -3 6 -7 -3 -5
-1 -17 4 -28 7 -19 8 -19 8 3 1 22 11 28 25 15 9 -10 13 -10 76 -12 28 0 50
-5 50 -10 0 -5 -10 -7 -22 -4 -19 4 -20 3 -8 -6 8 -6 25 -11 38 -11 31 0 19
-17 -19 -25 -27 -6 -30 -10 -24 -36 l7 -30 -76 7 c-88 8 -96 1 -71 -59 11 -27
21 -37 38 -37 17 0 19 -2 7 -10 -13 -8 -13 -10 0 -15 19 -7 93 -1 109 9 6 4
11 2 11 -5 0 -10 3 -10 12 -1 16 16 48 15 48 0 0 -10 2 -10 9 0 6 9 19 11 45
7 25 -5 36 -4 36 5 0 10 4 9 16 -1 12 -10 17 -10 23 0 6 9 15 9 34 2 18 -7 36
-7 54 0 18 7 28 6 33 -1 5 -8 18 -5 41 8 31 17 34 23 37 72 4 67 19 88 87 125
30 17 55 35 55 41 0 13 -22 68 -52 131 -11 23 -17 47 -13 53 4 6 4 18 0 28 -5
14 -7 14 -16 2 -8 -12 -14 -9 -38 18 -15 17 -32 32 -37 32 -6 0 -21 11 -34 25
-20 21 -21 25 -6 25 9 0 26 -5 37 -10 10 -6 19 -8 19 -5 0 15 -32 65 -41 65
-6 0 -8 4 -4 10 3 5 1 18 -5 30 -5 11 -15 29 -21 41 -6 12 -8 23 -6 25 8 9 37
-8 37 -22 0 -8 4 -14 9 -14 8 0 25 -55 23 -72 -1 -4 7 -10 18 -13 15 -5 20
-15 20 -45 0 -36 20 -70 41 -70 12 0 11 6 -1 28 -13 22 -40 101 -44 127 -5 37
-17 65 -26 60 -10 -6 -52 63 -46 74 3 4 -6 30 -20 57 l-25 49 33 9 c60 15 64
20 23 26 l-40 5 43 8 c55 10 98 -9 95 -41 -2 -12 1 -22 5 -22 7 0 16 -16 60
-107 8 -18 20 -33 27 -33 12 0 35 41 35 61 0 6 6 25 14 42 8 18 16 41 18 52 2
12 11 20 23 20 19 0 22 11 14 44 -5 18 37 41 73 41 17 0 28 6 31 18 4 13 5 12
6 -4 1 -24 31 -42 31 -19 0 7 -4 16 -10 20 -13 8 -1 33 20 40 16 5 18 17 17
100 0 58 3 99 10 106 16 16 5 39 -18 39 -13 0 -19 -7 -19 -23 0 -13 -5 -28
-10 -33 -8 -8 -6 -33 6 -83 12 -53 13 -76 5 -84 -8 -8 -11 -4 -11 16 0 15 -4
27 -10 27 -5 0 -10 7 -10 15 0 8 -9 19 -19 25 -11 5 -22 18 -26 28 -3 11 -17
24 -30 30 -22 10 -25 18 -25 63 0 38 5 55 18 65 16 13 16 13 0 14 -19 0 -25
25 -8 35 6 3 10 1 10 -5 0 -7 6 -10 14 -7 11 4 16 -10 21 -64 4 -38 11 -69 16
-69 5 0 9 6 9 13 0 8 9 22 20 32 11 10 20 24 20 30 0 7 9 24 20 38 12 15 28
49 36 77 8 27 17 50 20 50 3 0 2 -26 -2 -59z m-1010 -67 c3 -9 6 -40 6 -70 0
-63 -14 -70 -48 -24 -26 35 -37 37 -52 10 -8 -14 -7 -29 5 -56 16 -39 13 -65
-12 -94 -17 -19 -50 -16 -55 5 -2 10 -12 7 -33 -10 -16 -13 -26 -27 -22 -31 4
-4 16 1 27 11 16 15 22 16 35 5 12 -10 13 -16 4 -27 -9 -10 -8 -18 5 -32 14
-15 15 -24 6 -40 -6 -12 -19 -21 -29 -21 -10 0 -21 -3 -24 -7 -4 -3 -17 -7
-30 -8 -12 -1 -30 -5 -39 -10 -22 -9 -24 8 -2 29 14 15 14 16 -4 16 -13 0 -22
9 -26 25 -4 14 -13 25 -22 25 -10 0 -14 7 -12 23 2 17 11 23 38 27 26 4 38 12
49 34 8 16 26 40 40 52 24 20 27 28 23 78 -2 31 1 57 5 57 49 7 69 7 79 -2 15
-13 64 16 64 37 0 19 16 18 24 -2z m-484 -29 c0 -23 -35 -105 -44 -105 -2 0
-1 11 1 24 3 15 -1 25 -11 29 -11 5 -18 -7 -30 -46 -22 -78 -30 -141 -18 -133
6 3 14 -3 17 -14 5 -15 -1 -29 -19 -47 -14 -14 -26 -30 -26 -34 0 -5 -9 -9
-20 -9 -22 0 -22 0 -25 -53 -1 -21 2 -40 6 -43 13 -8 11 -21 -7 -39 -24 -24
-26 -105 -2 -131 14 -16 16 -26 9 -45 -9 -24 -10 -24 -16 9 -4 17 -13 32 -20
32 -8 0 -10 9 -7 25 2 14 -1 32 -8 39 -9 11 -9 20 0 37 10 17 9 23 -1 30 -19
11 -20 47 -2 54 9 3 13 12 9 22 -4 9 1 24 9 33 15 16 13 18 -15 23 -39 8 -38
20 3 36 38 15 60 52 77 126 6 28 12 55 13 60 1 6 14 29 27 50 14 22 27 49 30
60 3 11 11 20 17 20 6 0 15 3 19 8 16 16 34 6 34 -18z m-1190 -75 c0 -5 24
-12 53 -17 l52 -8 3 -51 c3 -48 5 -52 31 -57 37 -8 61 -32 61 -61 0 -36 -19
-44 -93 -42 -75 1 -87 10 -87 63 0 41 -30 63 -87 63 l-43 0 1 54 c2 54 2 55
33 58 57 6 76 6 76 -2z m1940 -71 c0 -5 4 -8 9 -5 11 7 20 -14 13 -31 -2 -7
-8 -10 -13 -7 -5 3 -1 -10 10 -30 l20 -35 -21 -28 c-12 -15 -23 -29 -24 -31
-4 -7 -44 -10 -44 -3 0 15 -39 53 -49 47 -5 -4 -12 -19 -16 -35 -8 -37 -35
-63 -35 -35 0 37 -16 49 -46 35 -19 -8 -30 -9 -38 -1 -7 7 -3 10 12 10 13 0
22 6 22 15 0 11 12 15 48 15 47 0 49 1 49 30 0 21 10 41 33 65 33 34 70 47 70
24z m-220 -103 c0 -8 -9 -17 -19 -21 -12 -4 -18 -12 -14 -21 3 -7 1 -14 -5
-14 -6 0 -7 -11 -3 -27 8 -28 49 -47 84 -39 13 3 17 0 13 -11 -3 -8 -6 -21 -6
-29 0 -8 -9 -14 -21 -14 -15 0 -19 -5 -14 -19 4 -15 0 -20 -25 -23 -39 -6 -45
4 -25 36 19 28 13 61 -12 70 -26 10 -27 -2 -2 -23 29 -23 21 -35 -14 -22 -51
20 -78 102 -28 86 16 -5 20 1 26 34 6 39 9 41 58 50 4 0 7 -5 7 -13z m-410
-185 c0 -6 -4 -12 -8 -15 -9 -5 -4 -66 6 -66 3 0 13 7 23 16 13 12 24 13 50 6
l34 -9 -30 -12 c-51 -19 -80 -38 -92 -62 -7 -13 -18 -28 -25 -34 -28 -23 -58
-73 -45 -79 6 -2 -2 -2 -19 1 -26 4 -32 1 -43 -24 -7 -15 -12 -30 -11 -32 1
-2 -4 -7 -11 -12 -10 -6 -10 -11 1 -24 12 -14 12 -18 -1 -26 -20 -13 -29 -11
-29 6 0 8 -7 15 -15 15 -10 0 -15 10 -15 34 0 34 15 57 22 34 2 -6 17 2 36 20
35 34 37 32 -40 33 -21 0 -28 5 -28 19 0 20 14 25 57 21 35 -3 66 18 60 40 -3
12 0 19 9 19 12 0 13 -8 8 -35 -7 -37 0 -43 27 -22 32 25 55 156 29 172 -20
12 -9 25 20 25 17 0 30 -4 30 -9z m483 -81 c9 -22 17 -49 17 -60 0 -23 15 -26
27 -6 4 7 18 16 29 20 17 5 23 2 28 -18 3 -13 3 -31 0 -39 -3 -8 0 -18 7 -23
9 -5 10 -2 6 9 -6 17 7 24 16 9 7 -11 -30 -53 -43 -50 -7 2 -14 -10 -15 -26
-3 -24 -1 -27 16 -23 10 3 19 1 19 -4 0 -5 -11 -9 -25 -9 -17 0 -33 -12 -53
-38 -15 -21 -33 -37 -39 -35 -7 3 -9 -3 -6 -16 3 -12 14 -21 24 -21 27 0 23
-14 -11 -44 -24 -20 -27 -27 -16 -33 12 -7 12 -12 -5 -33 -19 -23 -20 -23 -14
-3 7 26 -10 39 -31 23 -12 -11 -14 -9 -10 11 3 13 5 28 5 33 1 4 8 6 16 2 19
-7 19 -4 -4 22 -10 12 -21 19 -25 15 -3 -3 -6 -1 -6 5 0 16 30 45 61 59 25 11
26 16 32 109 6 99 1 134 -15 98 -5 -12 -7 -3 -4 29 2 26 0 50 -5 53 -11 6 -12
24 -1 24 4 0 15 -18 25 -40z m-287 -269 c8 6 14 7 14 1 0 -5 -7 -15 -15 -22
-32 -26 -4 -49 33 -26 16 10 15 -14 -3 -37 -7 -11 -11 -26 -8 -35 5 -11 2 -14
-9 -9 -10 3 -19 -1 -22 -10 -5 -12 -1 -14 14 -10 11 3 20 1 20 -4 0 -5 9 -9
20 -9 13 0 18 5 14 14 -5 13 -2 13 19 3 23 -11 24 -14 11 -28 -20 -22 -84 -23
-84 -2 0 8 -6 13 -12 10 -7 -2 -12 -14 -10 -25 4 -24 -5 -27 -28 -12 -10 6
-11 10 -2 10 6 0 12 9 12 20 0 11 -4 20 -10 20 -5 0 -7 6 -4 14 3 8 1 17 -5
20 -6 4 -7 14 -4 22 5 13 1 15 -15 9 -14 -4 -22 -2 -22 5 0 6 -5 8 -11 5 -6
-4 -17 1 -24 11 -13 17 -14 17 -15 2 0 -11 -5 -15 -15 -12 -8 4 -15 1 -15 -5
0 -19 -30 -12 -38 8 -7 19 -9 19 -40 4 -17 -8 -32 -20 -32 -25 0 -5 -5 -8 -11
-6 -13 4 -21 68 -8 68 4 0 10 -4 14 -10 3 -5 19 -8 35 -7 24 2 30 7 30 25 0
12 6 22 14 22 8 0 16 6 19 13 2 6 8 9 12 5 5 -5 -2 -16 -13 -27 -19 -16 -30
-41 -18 -41 2 0 12 -3 20 -6 12 -5 15 -2 10 10 -8 21 24 59 44 51 7 -3 23 0
34 6 20 11 20 10 4 -12 -21 -31 -20 -39 3 -39 11 0 23 -4 26 -10 14 -22 20 -8
16 36 l-3 46 22 -22 c17 -17 24 -19 36 -9z m-333 -89 c-1 -11 7 -24 22 -32
l24 -13 -22 -18 c-22 -18 -22 -18 15 -7 22 6 34 16 32 23 -7 17 14 22 56 15
35 -6 29 -14 -15 -22 -15 -3 -10 -9 25 -26 44 -21 44 -21 14 -22 -17 0 -34 -3
-38 -7 -11 -12 -70 -10 -78 2 -5 6 -8 3 -8 -7 0 -10 -4 -18 -10 -18 -18 0 -11
-20 8 -21 15 -1 14 -2 -2 -6 -14 -4 -16 -7 -6 -13 21 -13 -10 -39 -35 -30 -18
7 -19 8 -3 15 21 8 12 29 -8 21 -27 -10 -27 24 0 51 32 32 35 78 6 86 -13 3
-20 0 -20 -10 0 -8 -4 -12 -9 -9 -16 10 -1 42 21 43 31 3 33 11 7 34 l-24 21
25 -15 c15 -9 24 -23 23 -35z m-175 -348 c-10 -21 -9 -27 3 -35 8 -5 10 -9 6
-9 -5 0 -5 -5 -1 -12 5 -8 10 -6 15 8 7 17 8 17 8 1 1 -14 7 -16 29 -11 58 13
84 27 79 44 -4 15 1 17 37 12 22 -3 42 -9 44 -13 2 -4 10 -5 19 -2 11 4 14 2
9 -5 -4 -7 -2 -12 4 -12 6 0 9 -4 6 -9 -8 -12 18 -32 35 -29 9 2 13 -5 11 -17
-1 -13 8 -26 26 -36 26 -15 30 -15 50 2 12 9 22 22 22 28 0 6 9 11 20 11 25 0
26 -16 3 -29 -16 -9 -16 -10 4 -11 32 0 34 -13 6 -39 -24 -24 -25 -24 -56 -6
-18 10 -35 23 -38 28 -10 14 -99 22 -99 8 0 -6 9 -11 20 -11 17 0 18 -4 10
-24 -10 -27 -9 -28 57 -41 32 -6 56 -25 32 -25 -7 0 -23 -10 -36 -22 -20 -18
-26 -20 -48 -10 -37 17 -45 15 -45 -13 0 -14 -5 -24 -12 -22 -7 1 -15 -13 -19
-33 -6 -32 -14 -24 -9 10 1 10 -3 9 -14 -5 -8 -11 -16 -26 -16 -32 0 -7 -5
-13 -10 -13 -7 0 -7 7 0 20 13 23 7 35 -22 51 -18 10 -20 9 -14 -6 5 -14 4
-16 -7 -7 -8 7 -17 9 -21 5 -13 -13 -25 20 -16 43 5 12 6 25 2 29 -3 3 1 3 11
-1 9 -3 17 -10 17 -14 0 -5 9 -6 20 -3 20 5 28 23 10 23 -5 0 -7 7 -3 16 5 14
1 16 -20 12 -15 -3 -27 -2 -27 1 0 17 27 31 61 31 21 0 40 4 43 9 4 5 -6 8
-20 6 -26 -3 -86 22 -93 39 -6 14 -40 46 -50 46 -5 0 -19 -16 -31 -34 -13 -22
-26 -33 -35 -30 -23 9 -38 -5 -24 -22 9 -11 8 -14 -7 -14 -14 0 -15 -3 -6 -8
7 -5 10 -16 6 -25 -4 -13 -2 -16 9 -12 18 7 32 -24 17 -39 -7 -7 -16 -7 -31 2
-11 7 -23 10 -28 8 -4 -3 -16 1 -27 8 -16 12 -17 16 -4 32 8 11 10 16 5 11 -4
-4 -16 0 -26 9 -15 13 -24 14 -48 6 -39 -14 -50 2 -14 21 79 40 93 52 93 78 0
21 6 28 26 32 15 2 31 -2 40 -11 11 -11 18 -12 27 -3 8 8 7 11 -5 11 -8 0 -21
7 -28 15 -7 8 -21 15 -31 15 -23 0 -25 18 -4 27 9 3 25 -3 37 -13 20 -19 21
-19 41 9 26 34 40 35 25 1z m1832 -179 c0 -13 19 -19 58 -18 20 1 14 -7 -15
-18 -20 -7 -23 -13 -15 -21 9 -9 16 -8 29 4 26 22 47 33 39 20 -11 -18 12 -65
29 -58 9 3 15 -1 15 -10 0 -11 6 -13 20 -9 24 7 26 -7 5 -25 -12 -10 -13 -16
-4 -26 9 -12 0 -14 -53 -14 -41 0 -71 -5 -86 -15 -18 -13 -28 -14 -64 -4 -52
15 -59 20 -50 36 9 15 82 -1 82 -18 0 -14 71 18 93 42 18 19 18 22 3 37 -19
19 -28 12 -28 -21 0 -22 -3 -23 -24 -13 -23 10 -23 11 -3 14 11 2 18 9 16 15
-2 7 -13 11 -23 9 -10 -2 -32 -5 -47 -7 -16 -3 -33 -7 -38 -10 -5 -4 -9 -1 -9
5 0 6 8 14 18 17 46 18 65 63 26 63 -14 0 -19 21 -7 33 12 13 33 7 33 -8z m29
-351 c12 -11 11 -12 -10 -8 -22 5 -21 4 5 -10 36 -20 34 -21 28 9 -2 15 0 25
7 25 6 0 11 -9 11 -19 0 -10 7 -22 15 -25 13 -4 14 -10 5 -26 -6 -11 -9 -20
-8 -21 2 0 14 -2 26 -3 29 -3 49 -29 27 -34 -20 -4 -19 -12 3 -28 16 -13 16
-13 -1 -14 -10 0 -20 7 -24 16 -3 8 -12 13 -20 10 -8 -3 -12 -2 -8 3 5 10 -50
61 -66 61 -8 0 -14 -39 -10 -63 3 -18 -32 -1 -36 18 -12 54 -9 70 15 68 15 -2
21 1 16 8 -3 6 -17 8 -30 5 -20 -5 -24 -3 -24 17 0 13 3 27 6 30 10 9 56 -3
73 -19z"/>
<path d="M3870 950 c12 -8 11 -10 -7 -10 -12 0 -25 -5 -28 -11 -4 -5 -19 -15
-33 -20 -20 -8 -28 -7 -34 5 -7 13 -12 13 -29 3 -16 -10 -21 -9 -28 2 -12 19
-24 -4 -17 -34 3 -13 2 -27 -4 -30 -5 -3 -10 -20 -10 -37 0 -30 1 -31 19 -14
11 10 22 32 24 50 4 28 5 29 11 9 8 -22 42 -37 59 -26 5 3 -3 12 -19 19 l-29
14 35 -6 c19 -4 37 -10 40 -14 8 -12 68 -22 74 -12 3 5 -2 19 -10 31 -13 18
-19 20 -30 10 -8 -6 -17 -9 -21 -5 -3 3 0 6 8 6 11 0 11 2 -1 10 -11 7 -5 10
23 10 20 0 37 5 37 10 0 6 -8 10 -17 10 -14 0 -15 2 -4 9 15 10 7 31 -12 31
-7 0 -6 -4 3 -10z"/>
<path d="M3051 766 c-6 -7 -7 -16 -3 -20 4 -4 0 -6 -8 -4 -10 2 -15 -5 -15
-19 0 -11 -3 -25 -7 -29 -5 -4 -8 -13 -8 -21 0 -7 -12 -32 -26 -54 -14 -23
-23 -43 -20 -46 3 -3 1 -14 -4 -24 -9 -15 -6 -17 16 -15 14 2 33 9 43 17 12
11 25 13 49 7 31 -8 42 -30 22 -43 -5 -3 -10 -1 -10 4 0 6 -9 11 -20 11 -22 0
-25 -7 -11 -29 14 -22 101 4 101 30 0 5 -7 9 -15 9 -13 0 -35 28 -35 45 0 3
12 3 28 -1 l27 -6 -24 20 c-18 14 -20 21 -10 24 18 7 10 15 -24 23 -20 6 -27
4 -27 -8 0 -16 -24 -30 -34 -20 -9 10 -7 25 3 19 13 -9 43 30 39 51 -2 10 -11
17 -21 17 -31 -3 -18 14 29 36 25 12 44 23 42 25 -14 11 -68 12 -77 1z"/>
<path d="M3132 752 c-7 -5 -10 -16 -6 -25 3 -10 1 -17 -6 -17 -6 0 -8 5 -5 10
3 6 -1 10 -11 10 -12 0 -15 -6 -10 -22 3 -13 6 -29 6 -36 0 -8 8 -10 26 -6 19
5 25 4 20 -5 -4 -6 -3 -11 3 -11 5 0 13 5 16 10 4 6 25 8 48 4 41 -5 41 -5 17
10 -24 15 -22 15 38 9 34 -3 62 -3 62 0 0 4 -17 16 -37 27 -42 23 -8 17 39 -6
15 -8 37 -14 50 -13 19 0 16 3 -12 14 -34 13 -34 14 -7 14 15 1 27 5 27 10 0
4 -45 13 -100 20 -119 13 -141 13 -158 3z"/>
</g>
</svg>
